# xmcd CD database file
#
# Track frame offsets:
#	150
#	18392
#	43200
#
# Disc length: 915 seconds
#
# Revision: 2
# Processed by: cddbd v1.4b41PL1 Copyright (c) Steve Scherf et al.
# Submitted via: Feurio! 1.50.2ß - http://www.feurio.com
#
DISCID=1f039103
DTITLE=Damage - Forever
DYEAR=1900
DGENRE=
TTITLE0=Forever, radio edit
TTITLE1=They Don`t Have To Know
TTITLE2=Forever, linslee mix
EXTD=
EXTT0=
EXTT1=
EXTT2=
PLAYORDER=
